{
  "accessors": [
    {
      "bufferView": 2,
      "componentType": 5126,
      "count": 113,
      "max": [
        35.969635009765625,
        21.430681228637695,
        134.50010681152344
      ],
      "min": [
        -36.020896911621094,
        20.130678176879883,
        0.00011300000187475234
      ],
      "type": "VEC3"
    },
    {
      "bufferView": 2,
      "byteOffset": 1356,
      "componentType": 5126,
      "count": 113,
      "max": [
        1,
        1,
        1
      ],
      "min": [
        -1,
        -0,
        -1
      ],
      "type": "VEC3"
    },
    {
      "bufferView": 3,
      "componentType": 5126,
      "count": 113,
      "max": [
        1,
        1,
        1,
        1
      ],
      "min": [
        -1,
        -1,
        -9.3104390543885529e-05,
        1
      ],
      "type": "VEC4"
    },
    {
      "bufferView": 1,
      "componentType": 5126,
      "count": 113,
      "max": [
        1.2670079469680786,
        0.88035100698471069
      ],
      "min": [
        -0.10250499844551086,
        -0.050988998264074326
      ],
      "type": "VEC2"
    },
    {
      "bufferView": 0,
      "componentType": 5125,
      "count": 243,
      "max": [
        112
      ],
      "min": [
        0
      ],
      "type": "SCALAR"
    },
    {
      "bufferView": 2,
      "byteOffset": 2712,
      "componentType": 5126,
      "count": 36,
      "max": [
        4.2549810409545898,
        -20.708297729492188,
        119.53889465332031
      ],
      "min": [
        -4.2549810409545898,
        -20.748212814331055,
        29.315414428710938
      ],
      "type": "VEC3"
    },
    {
      "bufferView": 2,
      "byteOffset": 3144,
      "componentType": 5126,
      "count": 36,
      "max": [
        0.11300288140773773,
        -0.9736248254776001,
        -0.19820505380630493
      ],
      "min": [
        -0.11300288140773773,
        -0.9736248254776001,
        -0.19820505380630493
      ],
      "type": "VEC3"
    },
    {
      "bufferView": 3,
      "byteOffset": 1808,
      "componentType": 5126,
      "count": 36,
      "max": [
        0.98288273811340332,
        0.13875091075897217,
        -0.12077484279870987,
        1
      ],
      "min": [
        -0.98294651508331299,
        0.13867145776748657,
        -0.12120145559310913,
        1
      ],
      "type": "VEC4"
    },
    {
      "bufferView": 1,
      "byteOffset": 904,
      "componentType": 5126,
      "count": 36,
      "max": [
        0.99237102270126343,
        0.32405999302864075
      ],
      "min": [
        0.82581299543380737,
        0.01916000060737133
      ],
      "type": "VEC2"
    },
    {
      "bufferView": 0,
      "byteOffset": 972,
      "componentType": 5125,
      "count": 36,
      "max": [
        35
      ],
      "min": [
        0
      ],
      "type": "SCALAR"
    },
    {
      "bufferView": 2,
      "byteOffset": 3576,
      "componentType": 5126,
      "count": 20701,
      "max": [
        33.987884521484375,
        21.130681991577148,
        131.50010681152344
      ],
      "min": [
        -33.987884521484375,
        -23.105653762817383,
        -6.6000000515487045e-05
      ],
      "type": "VEC3"
    },
    {
      "bufferView": 2,
      "byteOffset": 251988,
      "componentType": 5126,
      "count": 20701,
      "max": [
        1,
        1,
        1
      ],
      "min": [
        -1,
        -1,
        -1
      ],
      "type": "VEC3"
    },
    {
      "bufferView": 3,
      "byteOffset": 2384,
      "componentType": 5126,
      "count": 20701,
      "max": [
        1,
        1,
        1,
        1
      ],
      "min": [
        -1,
        -1,
        -1,
        -1
      ],
      "type": "VEC4"
    },
    {
      "bufferView": 1,
      "byteOffset": 1192,
      "componentType": 5126,
      "count": 20701,
      "max": [
        0.99703001976013184,
        0.99748402833938599
      ],
      "min": [
        0.0025190000887960196,
        0.0025200000964105129
      ],
      "type": "VEC2"
    },
    {
      "bufferView": 0,
      "byteOffset": 1116,
      "componentType": 5125,
      "count": 80088,
      "max": [
        20700
      ],
      "min": [
        0
      ],
      "type": "SCALAR"
    },
    {
      "bufferView": 2,
      "byteOffset": 500400,
      "componentType": 5126,
      "count": 641,
      "max": [
        36.032516479492188,
        21.430681228637695,
        134.50010681152344
      ],
      "min": [
        -36.074165344238281,
        -22.061899185180664,
        131.50010681152344
      ],
      "type": "VEC3"
    },
    {
      "bufferView": 2,
      "byteOffset": 508092,
      "componentType": 5126,
      "count": 641,
      "max": [
        1,
        0.9969184398651123,
        1
      ],
      "min": [
        -1,
        -0.99998807907104492,
        -1
      ],
      "type": "VEC3"
    },
    {
      "bufferView": 3,
      "byteOffset": 333600,
      "componentType": 5126,
      "count": 641,
      "max": [
        0.99995577335357666,
        1,
        0.99999934434890747,
        1
      ],
      "min": [
        -0.99999505281448364,
        -0.97729438543319702,
        -1,
        1
      ],
      "type": "VEC4"
    },
    {
      "bufferView": 1,
      "byteOffset": 166800,
      "componentType": 5126,
      "count": 641,
      "max": [
        1.4815709590911865,
        1.4995549917221069
      ],
      "min": [
        -0.49355998635292053,
        -0.49955499172210693
      ],
      "type": "VEC2"
    },
    {
      "bufferView": 0,
      "byteOffset": 321468,
      "componentType": 5125,
      "count": 2592,
      "max": [
        640
      ],
      "min": [
        0
      ],
      "type": "SCALAR"
    }
  ],
  "asset": {
    "extras": {
      "author": "Interiors3D (https://sketchfab.com/Interiors3D)",
      "license": "CC-BY-4.0 (http://creativecommons.org/licenses/by/4.0/)",
      "source": "https://sketchfab.com/3d-models/dra100-7fffdcdcf7134bfa8b8680208d5c46d0",
      "title": "DRA100"
    },
    "generator": "Sketchfab-10.11.2",
    "version": "2.0"
  },
  "bufferViews": [
    {
      "buffer": 0,
      "byteLength": 331836,
      "byteOffset": 0,
      "name": "floatBufferViews",
      "target": 34963
    },
    {
      "buffer": 0,
      "byteLength": 171928,
      "byteOffset": 331836,
      "byteStride": 8,
      "name": "floatBufferViews",
      "target": 34962
    },
    {
      "buffer": 0,
      "byteLength": 515784,
      "byteOffset": 503764,
      "byteStride": 12,
      "name": "floatBufferViews",
      "target": 34962
    },
    {
      "buffer": 0,
      "byteLength": 343856,
      "byteOffset": 1019548,
      "byteStride": 16,
      "name": "floatBufferViews",
      "target": 34962
    }
  ],
  "buffers": [
    {
      "byteLength": 1363404,
      "uri": "scene.bin"
    }
  ],
  "images": [
    {
      "uri": "textures/Back_baseColor.jpeg"
    },
    {
      "uri": "textures/Back_metallicRoughness.png"
    },
    {
      "uri": "textures/Back_normal.png"
    },
    {
      "uri": "textures/Chateau_baseColor.jpeg"
    },
    {
      "uri": "textures/Chateau_metallicRoughness.png"
    },
    {
      "uri": "textures/Chateau_normal.png"
    },
    {
      "uri": "textures/Wood.001_baseColor.jpeg"
    },
    {
      "uri": "textures/Wood.001_metallicRoughness.png"
    },
    {
      "uri": "textures/Wood.001_normal.png"
    }
  ],
  "materials": [
    {
      "doubleSided": true,
      "name": "Back",
      "normalTexture": {
        "index": 2,
        "scale": 1,
        "texCoord": 0
      },
      "pbrMetallicRoughness": {
        "baseColorFactor": [
          1,
          1,
          1,
          1
        ],
        "baseColorTexture": {
          "index": 0,
          "texCoord": 0
        },
        "metallicFactor": 0,
        "metallicRoughnessTexture": {
          "index": 1,
          "texCoord": 0
        },
        "roughnessFactor": 1
      }
    },
    {
      "doubleSided": true,
      "name": "Chateau",
      "normalTexture": {
        "index": 5,
        "scale": 1,
        "texCoord": 0
      },
      "pbrMetallicRoughness": {
        "baseColorFactor": [
          1,
          1,
          1,
          1
        ],
        "baseColorTexture": {
          "index": 3,
          "texCoord": 0
        },
        "metallicFactor": 0,
        "metallicRoughnessTexture": {
          "index": 4,
          "texCoord": 0
        },
        "roughnessFactor": 1
      }
    },
    {
      "doubleSided": true,
      "name": "Wood.001",
      "normalTexture": {
        "index": 8,
        "scale": 1,
        "texCoord": 0
      },
      "pbrMetallicRoughness": {
        "baseColorFactor": [
          1,
          1,
          1,
          1
        ],
        "baseColorTexture": {
          "index": 6,
          "texCoord": 0
        },
        "metallicFactor": 0,
        "metallicRoughnessTexture": {
          "index": 7,
          "texCoord": 0
        },
        "roughnessFactor": 1
      }
    }
  ],
  "meshes": [
    {
      "primitives": [
        {
          "attributes": {
            "NORMAL": 1,
            "POSITION": 0,
            "TANGENT": 2,
            "TEXCOORD_0": 3
          },
          "indices": 4,
          "material": 0,
          "mode": 4
        }
      ]
    },
    {
      "primitives": [
        {
          "attributes": {
            "NORMAL": 6,
            "POSITION": 5,
            "TANGENT": 7,
            "TEXCOORD_0": 8
          },
          "indices": 9,
          "material": 1,
          "mode": 4
        }
      ]
    },
    {
      "primitives": [
        {
          "attributes": {
            "NORMAL": 11,
            "POSITION": 10,
            "TANGENT": 12,
            "TEXCOORD_0": 13
          },
          "indices": 14,
          "material": 1,
          "mode": 4
        }
      ]
    },
    {
      "primitives": [
        {
          "attributes": {
            "NORMAL": 16,
            "POSITION": 15,
            "TANGENT": 17,
            "TEXCOORD_0": 18
          },
          "indices": 19,
          "material": 2,
          "mode": 4
        }
      ]
    }
  ],
  "nodes": [
    {
      "children": [
        1
      ],
      "name": "RootNode (gltf orientation matrix)",
      "rotation": [
        -0.70710678118654746,
        -0,
        -0,
        0.70710678118654757
      ]
    },
    {
      "children": [
        2
      ],
      "name": "RootNode (model correction matrix)"
    },
    {
      "children": [
        3,
        4,
        5,
        6
      ],
      "name": "W03 - DRA100 - Sketchfab - mesh.obj.cleaner.materialmerger.gles"
    },
    {
      "mesh": 0,
      "name": ""
    },
    {
      "mesh": 1,
      "name": ""
    },
    {
      "mesh": 2,
      "name": ""
    },
    {
      "mesh": 3,
      "name": ""
    }
  ],
  "samplers": [
    {
      "magFilter": 9729,
      "minFilter": 9987,
      "wrapS": 10497,
      "wrapT": 10497
    }
  ],
  "scene": 0,
  "scenes": [
    {
      "name": "OSG_Scene",
      "nodes": [
        0
      ]
    }
  ],
  "textures": [
    {
      "sampler": 0,
      "source": 0
    },
    {
      "sampler": 0,
      "source": 1
    },
    {
      "sampler": 0,
      "source": 2
    },
    {
      "sampler": 0,
      "source": 3
    },
    {
      "sampler": 0,
      "source": 4
    },
    {
      "sampler": 0,
      "source": 5
    },
    {
      "sampler": 0,
      "source": 6
    },
    {
      "sampler": 0,
      "source": 7
    },
    {
      "sampler": 0,
      "source": 8
    }
  ]
}

